name Walk2.mot
datacolumns 19
datarows 17
range 4.10300000 4.11900000
endheader

                time	   L_ground_force_vx	   L_ground_force_vy	   L_ground_force_vz	   L_ground_force_px	   L_ground_force_py	   L_ground_force_pz	   R_ground_force_vx	   R_ground_force_vy	   R_ground_force_vz	   R_ground_force_px	   R_ground_force_py	   R_ground_force_pz	   L_ground_torque_x	   L_ground_torque_y	   L_ground_torque_z	   R_ground_torque_x	   R_ground_torque_y	   R_ground_torque_z	
          4.10300000	          0.01057303	          0.04416053	          0.00322471	         -0.00010076	          0.00000000	         -0.00002766	        -10.51549497	        940.91470474	        -58.22195978	          0.36703233	          0.00000000	          0.12366891	          0.00000000	          0.00004241	          0.00000000	          0.00000000	          5.52824035	          0.00000000	
          4.10400000	          0.00928502	          0.03986145	          0.00298597	         -0.00009624	          0.00000000	         -0.00002681	        -10.13123055	        939.49772516	        -58.04740254	          0.36716142	          0.00000000	          0.12365306	          0.00000000	          0.00004400	          0.00000000	          0.00000000	          5.45349721	          0.00000000	
          4.10500000	          0.00807143	          0.03577726	          0.00275625	         -0.00009174	          0.00000000	         -0.00002593	         -9.74915421	        938.08648878	        -57.88133445	          0.36729284	          0.00000000	          0.12363780	          0.00000000	          0.00004528	          0.00000000	          0.00000000	          5.37962708	          0.00000000	
          4.10600000	          0.00693053	          0.03190514	          0.00253564	         -0.00008728	          0.00000000	         -0.00002503	         -9.36920961	        936.68166613	        -57.72383733	          0.36742651	          0.00000000	          0.12362313	          0.00000000	          0.00004628	          0.00000000	          0.00000000	          5.30664322	          0.00000000	
          4.10700000	          0.00586044	          0.02824168	          0.00232421	         -0.00008286	          0.00000000	         -0.00002411	         -8.99133851	        935.28394946	        -57.57496457	          0.36756235	          0.00000000	          0.12360903	          0.00000000	          0.00004703	          0.00000000	          0.00000000	          5.23455722	          0.00000000	
          4.10800000	          0.00485920	          0.02478298	          0.00212197	         -0.00007851	          0.00000000	         -0.00002317	         -8.61548088	        933.89405510	        -57.43474176	          0.36770028	          0.00000000	          0.12359552	          0.00000000	          0.00004753	          0.00000000	          0.00000000	          5.16337904	          0.00000000	
          4.10900000	          0.00392472	          0.02152471	          0.00192891	         -0.00007423	          0.00000000	         -0.00002223	         -8.24157497	        932.51272553	        -57.30316745	          0.36784024	          0.00000000	          0.12358260	          0.00000000	          0.00004781	          0.00000000	          0.00000000	          5.09311691	          0.00000000	
          4.11000000	          0.00305486	          0.01846213	          0.00174498	         -0.00007004	          0.00000000	         -0.00002129	         -7.86955727	        931.14073063	        -57.18021373	          0.36798214	          0.00000000	          0.12357026	          0.00000000	          0.00004788	          0.00000000	          0.00000000	          5.02377730	          0.00000000	
          4.11100000	          0.00224742	          0.01559018	          0.00157009	         -0.00006593	          0.00000000	         -0.00002034	         -7.49936210	        929.77886771	        -57.06582676	          0.36812590	          0.00000000	          0.12355852	          0.00000000	          0.00004777	          0.00000000	          0.00000000	          4.95536485	          0.00000000	
          4.11200000	          0.00150013	          0.01290351	          0.00140414	         -0.00006193	          0.00000000	         -0.00001940	         -7.13092114	        928.42796045	        -56.95992714	          0.36827145	          0.00000000	          0.12354737	          0.00000000	          0.00004749	          0.00000000	          0.00000000	          4.88788236	          0.00000000	
          4.11300000	          0.00081072	          0.01039650	          0.00124699	         -0.00005803	          0.00000000	         -0.00001846	         -6.76416274	        927.08885716	        -56.86241030	          0.36841870	          0.00000000	          0.12353682	          0.00000000	          0.00004705	          0.00000000	          0.00000000	          4.82133080	          0.00000000	
          4.11400000	          0.00017686	          0.00806337	          0.00109849	         -0.00005425	          0.00000000	         -0.00001754	         -6.39901136	        925.76242881	        -56.77314705	          0.36856759	          0.00000000	          0.12352687	          0.00000000	          0.00004647	          0.00000000	          0.00000000	          4.75570934	          0.00000000	
          4.11500000	         -0.00040378	          0.00589814	          0.00095846	         -0.00005058	          0.00000000	         -0.00001662	         -6.03538720	        924.44956700	        -56.69198424	          0.36871804	          0.00000000	          0.12351750	          0.00000000	          0.00004577	          0.00000000	          0.00000000	          4.69101522	          0.00000000	
          4.11600000	         -0.00093352	          0.00389472	          0.00082672	         -0.00004703	          0.00000000	         -0.00001573	         -5.67320622	        923.15118182	        -56.61874565	          0.36886997	          0.00000000	          0.12350873	          0.00000000	          0.00004495	          0.00000000	          0.00000000	          4.62724367	          0.00000000	
          4.11700000	         -0.00141469	          0.00204692	          0.00070306	         -0.00004361	          0.00000000	         -0.00001484	         -5.31238040	        921.86819958	        -56.55323295	          0.36902332	          0.00000000	          0.12350054	          0.00000000	          0.00004403	          0.00000000	          0.00000000	          4.56438777	          0.00000000	
          4.11800000	         -0.00184961	          0.00034850	          0.00058725	         -0.00004031	          0.00000000	         -0.00001398	         -4.95281834	        920.60156044	        -56.49522669	          0.36917800	          0.00000000	          0.12349292	          0.00000000	          0.00004302	          0.00000000	          0.00000000	          4.50243825	          0.00000000	
          4.11900000	         -0.00224056	         -0.00120684	          0.00047908	         -0.00003714	          0.00000000	         -0.00001314	         -4.59442596	        919.35221603	        -56.44448717	          0.36933396	          0.00000000	          0.12348587	          0.00000000	          0.00004194	          0.00000000	          0.00000000	          4.44138349	          0.00000000	
